<?xml version="1.0" encoding="utf-8"?>
<!-- Generator: Adobe Illustrator 26.3.1, SVG Export Plug-In . SVG Version: 6.00 Build 0)  -->
<svg version="1.1" id="Capa_1" xmlns="http://www.w3.org/2000/svg" xmlns:xlink="http://www.w3.org/1999/xlink" x="0px" y="0px"
	 viewBox="0 0 65 63" style="enable-background:new 0 0 65 63;" xml:space="preserve">
<style type="text/css">
	.st0{fill:#141B4D;}
	.st1{fill:#FFB81C;}
	.st2{fill:#FFFFFF;}
	.st3{fill:#FFAF1C;}
	.st4{fill:#FF6D6A;}
</style>
<g>
	<path class="st0" d="M32.5,18.66c-4.72,0-8.54,3.83-8.54,8.54c0,4.72,3.83,8.54,8.54,8.54s8.54-3.83,8.54-8.54
		C41.04,22.49,37.22,18.66,32.5,18.66z M35.49,26.77c-1.41,0-2.55-1.14-2.55-2.55s1.14-2.55,2.55-2.55s2.55,1.14,2.55,2.55
		S36.9,26.77,35.49,26.77z"/>
</g>
<path class="st0" d="M41.74,41.67c4.77-3.05,7.93-8.38,7.93-14.46c0-9.48-7.69-17.17-17.17-17.17s-17.17,7.69-17.17,17.17
	c0,6.08,3.17,11.41,7.93,14.46l0,0l-3.64,11.3H32.5h12.88L41.74,41.67L41.74,41.67z M18.47,27.21c0-7.73,6.29-14.03,14.03-14.03
	s14.03,6.29,14.03,14.03c0,7.73-6.29,14.03-14.03,14.03S18.47,34.94,18.47,27.21z M32.5,49.87h-8.63l1.23-3.81
	c2.35,0.93,4.86,1.41,7.4,1.41c2.55,0,5.05-0.48,7.4-1.41l1.23,3.81H32.5z"/>
</svg>
