<?xml version="1.0" standalone="no"?>
<!DOCTYPE svg PUBLIC "-//W3C//DTD SVG 20010904//EN"
 "http://www.w3.org/TR/2001/REC-SVG-20010904/DTD/svg10.dtd">
<svg version="1.0" xmlns="http://www.w3.org/2000/svg"
 width="512.000000pt" height="512.000000pt" viewBox="0 0 512.000000 512.000000"
 preserveAspectRatio="xMidYMid meet">

<g transform="translate(0.000000,512.000000) scale(0.100000,-0.100000)"
fill="#000000" stroke="none">
<path d="M2375 4794 c-568 -60 -1046 -288 -1426 -681 -270 -280 -459 -617
-554 -987 -57 -226 -70 -325 -69 -571 0 -238 16 -365 69 -569 175 -672 683
-1246 1332 -1505 651 -259 1387 -201 1983 159 485 292 845 757 998 1290 68
235 87 373 86 635 0 249 -16 372 -78 598 -230 835 -932 1462 -1801 1608 -116
19 -442 33 -540 23z m383 -325 c383 -42 744 -196 1037 -441 212 -177 373 -386
495 -640 84 -176 129 -318 167 -528 24 -133 24 -467 0 -600 -38 -210 -83 -352
-167 -528 -192 -400 -501 -710 -901 -901 -177 -85 -318 -129 -529 -168 -133
-24 -467 -24 -600 0 -211 39 -352 83 -529 168 -399 191 -708 500 -901 901
-413 861 -130 1891 665 2423 370 248 829 362 1263 314z"/>
<path d="M2495 3826 c-16 -8 -294 -279 -617 -602 -636 -639 -610 -608 -593
-701 5 -34 76 -107 603 -635 648 -647 616 -621 709 -603 49 9 109 69 118 118
17 91 30 75 -448 554 l-441 443 956 2 c948 3 957 3 984 24 53 39 69 71 69 134
0 63 -16 95 -69 134 -27 21 -36 21 -984 24 l-956 2 441 443 c387 387 442 447
448 480 25 132 -101 237 -220 183z"/>
</g>
</svg>
