<svg xmlns="http://www.w3.org/2000/svg" viewBox="0 0 35.15 44.74"><defs><style>.cls-1{fill:#fff;}.cls-2{fill:#141b4d;}.cls-3{fill:#ffaf1c;}</style></defs><title>Recurso 4</title><g id="Capa_2" data-name="Capa 2"><g id="Layer_2" data-name="Layer 2"><path class="cls-1" d="M1.71,43.71A.7.7,0,0,1,1,43V1.71A.7.7,0,0,1,1.71,1h19a3.77,3.77,0,0,1,2.19.91L33.22,12.3a3.77,3.77,0,0,1,.91,2.19V43a.69.69,0,0,1-.68.68Z"/><path class="cls-2" d="M20.66,2.05a2.9,2.9,0,0,1,1.47.6L32.5,13a2.87,2.87,0,0,1,.6,1.46v28.2h-31V2.05H20.66m0-2H1.71A1.72,1.72,0,0,0,0,1.71V43a1.72,1.72,0,0,0,1.71,1.71H33.45A1.71,1.71,0,0,0,35.15,43V14.49a4.7,4.7,0,0,0-1.21-2.91L23.57,1.21A4.7,4.7,0,0,0,20.66,0Z"/><path class="cls-2" d="M9.07,19.87a.7.7,0,0,1,.7-.7h1.9a2.18,2.18,0,0,1,2.44,2.2v0a2.28,2.28,0,0,1-2.57,2.24H10.47v1.26a.7.7,0,1,1-1.4,0Zm2.51,2.51a1,1,0,0,0,1.11-1v0c0-.63-.43-1-1.13-1H10.47v1.95Z"/><path class="cls-2" d="M14.61,19.87a.69.69,0,0,1,.7-.7h1.78a3.17,3.17,0,0,1,3.38,3.17h0a3.19,3.19,0,0,1-3.38,3.19H15.31a.69.69,0,0,1-.7-.7Zm2.48,4.4A1.82,1.82,0,0,0,19,22.37v0a1.84,1.84,0,0,0-1.92-1.92H16v3.84Z"/><path class="cls-2" d="M21.18,19.87a.69.69,0,0,1,.7-.7h3.56a.64.64,0,1,1,0,1.27H22.58V21.8H25a.64.64,0,1,1,0,1.27H22.58v1.82a.7.7,0,1,1-1.4,0Z"/><path class="cls-3" d="M24.07,11.87a.79.79,0,0,1-.79-.79V2.2L33,11.87Z"/><path class="cls-2" d="M24.19,4.4,30.75,11H24.19V4.4M22.88.82c-.31,0-.51.31-.51.89v9.37a1.71,1.71,0,0,0,1.7,1.7h9.38c.93,0,1.16-.54.49-1.2L23.57,1.21a1.05,1.05,0,0,0-.69-.39Z"/></g></g></svg>