<svg xmlns="http://www.w3.org/2000/svg" viewBox="0 0 24 17.14"><defs><style>.cls-1{fill:#141b4d;}</style></defs><g id="Capa_2" data-name="Capa 2"><g id="Layer_1" data-name="Layer 1"><path class="cls-1" d="M21.8,0H2.2A2.21,2.21,0,0,0,0,2.2V14.94a2.21,2.21,0,0,0,2.2,2.2H21.8a2.21,2.21,0,0,0,2.2-2.2V2.2A2.21,2.21,0,0,0,21.8,0Zm1.1,14.94A1.1,1.1,0,0,1,21.8,16H2.2a1.1,1.1,0,0,1-1.1-1.1V2.2A1.1,1.1,0,0,1,2.2,1.1H21.8a1.1,1.1,0,0,1,1.1,1.1Z"/><path class="cls-1" d="M21.8,1.7,12,9.57,2.58,1.71a.56.56,0,0,0-.78.07.55.55,0,0,0,.07.77l9.78,8.16a.57.57,0,0,0,.35.12.54.54,0,0,0,.34-.12L22.49,2.56a.55.55,0,0,0-.69-.86Z"/><path class="cls-1" d="M16.79,9.86a.55.55,0,0,0-.77.07.56.56,0,0,0,.07.78l5.7,4.75a.55.55,0,0,0,.36.13.56.56,0,0,0,.42-.2.55.55,0,0,0-.07-.77Z"/><path class="cls-1" d="M7.8,9.86,1.88,14.61a.55.55,0,0,0-.08.78.53.53,0,0,0,.42.2.55.55,0,0,0,.35-.12l5.92-4.76a.55.55,0,1,0-.69-.85Z"/></g></g></svg>