<svg xmlns="http://www.w3.org/2000/svg" viewBox="0 0 29.17 25"><defs><style>.cls-1{fill:#ffaf1c;}.cls-2{fill:#141b4d;}</style></defs><g id="Capa_2" data-name="Capa 2"><g id="Layer_1" data-name="Layer 1"><rect class="cls-1" x="19.79" width="6.25" height="22.19"/><rect class="cls-1" x="11.46" y="4.17" width="6.25" height="18.02"/><rect class="cls-1" x="3.13" y="8.33" width="6.25" height="13.85"/><path class="cls-2" d="M27.08,22.17a.75.75,0,1,1,0,1.49h-25a.75.75,0,0,1,0-1.49h25m0-1.34h-25a2.09,2.09,0,0,0,0,4.17h25a2.09,2.09,0,1,0,0-4.17Z"/><path class="cls-2" d="M8,9.67V20.85H4.46V9.67H8M9.38,8.33H3.13V22.19H9.38V8.33Z"/><path class="cls-2" d="M16.37,5.5V20.85H12.79V5.5h3.58m1.34-1.33H11.46v18h6.25v-18Z"/><path class="cls-2" d="M24.71,1.34V20.85H21.13V1.34h3.58M26,0H19.79V22.19H26V0Z"/></g></g></svg>