<svg xmlns="http://www.w3.org/2000/svg" viewBox="0 0 209.67 72.08"><defs><style>.cls-1{fill:#141b4d;}.cls-2{font-size:22px;fill:#fff;font-family:Helvetica;}.cls-3{letter-spacing:-0.01em;}.cls-4{letter-spacing:0em;}.cls-5{letter-spacing:-0.01em;}.cls-6{fill:#ffaf1c;}</style></defs><g id="Capa_2" data-name="Capa 2"><g id="Layer_1" data-name="Layer 1"><rect class="cls-1" width="209.67" height="72.08" rx="5"/><text class="cls-2" transform="translate(85.89 33.41)"><tspan class="cls-3">C</tspan><tspan x="12.52" y="0">e</tspan><tspan class="cls-4" x="23.54" y="0">r</tspan><tspan class="cls-5" x="30.82" y="0">r</tspan><tspan x="37.91" y="0">ar </tspan><tspan x="0" y="20.4">sesión</tspan></text><path class="cls-6" d="M53.22,39.76a7.48,7.48,0,0,1,7.47,7.47V54.7H35.49V47.23A7.48,7.48,0,0,1,43,39.76H53.22m0-2.8H43A10.27,10.27,0,0,0,32.69,47.23V57.5h30.8V47.23A10.27,10.27,0,0,0,53.22,37Z"/><path class="cls-6" d="M48.09,17.38a7.47,7.47,0,1,1-7.47,7.47,7.48,7.48,0,0,1,7.47-7.47m0-2.8A10.27,10.27,0,1,0,58.36,24.85,10.27,10.27,0,0,0,48.09,14.58Z"/></g></g></svg>