<svg xmlns="http://www.w3.org/2000/svg" viewBox="0 0 400.61 53.22"><defs><style>.cls-1{fill:#141b4d;}.cls-2{fill:#ff6d6a;}.cls-3{fill:#8e9089;}.cls-4{fill:#6f9ba4;}.cls-5{fill:#ffb81c;}.cls-6{font-size:16px;font-family:Helvetica-Light, Helvetica Light;font-weight:300;}.cls-7{letter-spacing:-0.01em;}.cls-8{letter-spacing:-0.01em;}.cls-9{letter-spacing:0.01em;}.cls-10{letter-spacing:0em;}.cls-11{letter-spacing:-0.02em;}.cls-12{letter-spacing:0.01em;}.cls-13{letter-spacing:-0.04em;}.cls-14{letter-spacing:-0.02em;}.cls-15{fill:none;stroke:#b3b3b3;stroke-miterlimit:10;}</style></defs><g id="Capa_2" data-name="Capa 2"><g id="Layer_1" data-name="Layer 1"><path class="cls-1" d="M0,27.8A22.14,22.14,0,0,0,21.07,49.89V5.72A22.14,22.14,0,0,0,0,27.8"/><path class="cls-2" d="M31.9,49.91H44.21V37.6A24.3,24.3,0,0,1,31.9,49.91"/><path class="cls-2" d="M44.21,18V5.7H31.9A24.3,24.3,0,0,1,44.21,18"/><path class="cls-3" d="M44.21,27.8A22.13,22.13,0,0,0,23.14,5.72V49.89A22.13,22.13,0,0,0,44.21,27.8"/><path class="cls-4" d="M69.43,27.8V42.2h2.82a18.25,18.25,0,0,0,0-36.5H55.05A24.2,24.2,0,0,1,69.43,27.8"/><path class="cls-5" d="M46.29,5.72V49.91H67.36V27.8A22.14,22.14,0,0,0,46.29,5.72"/><path class="cls-1" d="M104,25.68a5.4,5.4,0,0,0,.13.7,2.29,2.29,0,0,0,1.68,1.7,2.25,2.25,0,0,0,2.27-.63,2.65,2.65,0,0,0,.69-2.38,2.37,2.37,0,0,0-3.46-1.8A2.52,2.52,0,0,0,104,25.68m-.75,0a3.14,3.14,0,0,1,1.49-2.87,3.1,3.1,0,0,1,3.24-.05,3,3,0,0,1,1.58,2.64,3.24,3.24,0,0,1-1.11,2.72,3.16,3.16,0,0,1-5.11-1.71,7.1,7.1,0,0,1-.09-.73"/><path class="cls-1" d="M107.9,33.12h.71V39.5a1.64,1.64,0,0,1-.25-.2L104.62,35l-.24-.28-.07,0v4.55h-.7V32.91c.12.11.21.17.28.25l2.63,3,1.13,1.29c.06.07.13.13.25.25Z"/><path class="cls-1" d="M124.9,39.33h-.67c0-.12,0-.22,0-.33,0-.8,0-1.61,0-2.42a2.76,2.76,0,0,0-.14-.75,1,1,0,0,0-1.61-.34,1.76,1.76,0,0,0-.45,1c0,.3,0,.61,0,.91,0,.63,0,1.26,0,1.91h-.7c0-.1,0-.2,0-.3,0-.75,0-1.5,0-2.25a3.28,3.28,0,0,0-.14-.93,1,1,0,0,0-1.64-.31,1.66,1.66,0,0,0-.42,1c0,.57,0,1.14,0,1.71v1h-.67V34.73l.24,0h.27c0,.23.06.45.09.73a1.62,1.62,0,0,1,1.47-.85,1.53,1.53,0,0,1,1.41.94,1,1,0,0,0,.1-.16,1.57,1.57,0,0,1,1.89-.71,1.39,1.39,0,0,1,1,1.11,3.29,3.29,0,0,1,.1.82c0,.85,0,1.69,0,2.54a1.48,1.48,0,0,1,0,.2"/><path class="cls-1" d="M137.3,26.46a2,2,0,0,0-.33-1.21,1.47,1.47,0,0,0-2.57.16,2.09,2.09,0,0,0,0,1.93,1.43,1.43,0,0,0,1.32.86,1.48,1.48,0,0,0,1.33-.74,1.82,1.82,0,0,0,.27-1m0-1.67V22.48H138v6.2h-.54c0-.25-.06-.5-.09-.81a2.24,2.24,0,0,1-.85.75,2.1,2.1,0,0,1-2.86-1.12,2.81,2.81,0,0,1,.21-2.61,2.08,2.08,0,0,1,3.3-.25l.14.15"/><path class="cls-1" d="M104.32,46.85h1.51a1.13,1.13,0,0,0,.32-.06,1.1,1.1,0,0,0,.83-1.15,1.06,1.06,0,0,0-.81-1.15,8.12,8.12,0,0,0-1.85-.09Zm0,.66V50h-.7V43.77a.45.45,0,0,1,.11,0c.74,0,1.48,0,2.21,0a2.37,2.37,0,0,1,.69.15,1.71,1.71,0,0,1,1.12,1.82,1.78,1.78,0,0,1-1.92,1.77c-.39,0-.79,0-1.18,0h-.33"/><path class="cls-1" d="M114.77,47.24a1.35,1.35,0,0,0-1.41-1.39,1.5,1.5,0,0,0-1.52,1.53,22,22,0,0,1,2.93-.14m.53,1.42v.7a2.19,2.19,0,0,1-1.53.72,3.12,3.12,0,0,1-1-.09,2.24,2.24,0,0,1-1.63-2.12,2.63,2.63,0,0,1,.57-1.87,2.24,2.24,0,0,1,3.34-.09,1.9,1.9,0,0,1,.49,1.29v.65H112.2c-.26,0-.36.16-.32.43a1.11,1.11,0,0,0,.46.76,2,2,0,0,0,2,.28,1.69,1.69,0,0,0,.8-.48l.2-.19"/><path class="cls-1" d="M142.46,26a1.38,1.38,0,0,0-.73-1.23,1.54,1.54,0,0,0-1.6.11,1.47,1.47,0,0,0-.62,1.24,23.85,23.85,0,0,1,3-.12m.5,1.47v.65a2.19,2.19,0,0,1-1.53.72,3.13,3.13,0,0,1-1.05-.1,2.24,2.24,0,0,1-1.63-2.14,2.47,2.47,0,0,1,.91-2.16,2.13,2.13,0,0,1,3.44,1.1,6,6,0,0,1,.07,1.07H140c-.36,0-.5.19-.39.55a1.37,1.37,0,0,0,1.09,1,2.16,2.16,0,0,0,2.15-.56.52.52,0,0,1,.11-.1H143"/><path class="cls-1" d="M141.31,47.64c-.28.07-.52.14-.77.18s-.43,0-.64,0a3.06,3.06,0,0,0-.68.16.65.65,0,0,0-.43.62.75.75,0,0,0,.4.68,1.42,1.42,0,0,0,2.11-1,4.75,4.75,0,0,0,0-.65m-2.91-1v-.71a2.44,2.44,0,0,1,1.35-.67,2.66,2.66,0,0,1,1.34.11,1.33,1.33,0,0,1,.92,1.25c0,1.07,0,2.15,0,3.22a.6.6,0,0,1,0,.12h-.53c0-.22-.06-.44-.09-.7l-.19.21a2,2,0,0,1-2.55.31,1.31,1.31,0,0,1-.54-1.27,1.2,1.2,0,0,1,.76-1,3.22,3.22,0,0,1,1.19-.22,7.13,7.13,0,0,0,.79,0c.51-.05.58-.56.34-.92a.92.92,0,0,0-.64-.38,2.08,2.08,0,0,0-1.72.41,4.56,4.56,0,0,0-.41.33"/><path class="cls-1" d="M141,36.94a1.93,1.93,0,0,1-1,.27c-.15,0-.3,0-.44,0a2.91,2.91,0,0,0-.6.13.68.68,0,0,0-.47.68.75.75,0,0,0,.47.7,1.43,1.43,0,0,0,1.95-.77,2.3,2.3,0,0,0,.09-1m-2.91-1v-.68a2.53,2.53,0,0,1,1.33-.65,2.57,2.57,0,0,1,1.37.11,1.29,1.29,0,0,1,.9,1.23c0,1.08,0,2.16,0,3.24,0,0,0,.06,0,.11h-.54c0-.22-.05-.44-.08-.71a1.33,1.33,0,0,0-.14.17,2,2,0,0,1-2.41.48,1.31,1.31,0,0,1-.73-1.31,1.14,1.14,0,0,1,.83-1.13,6.44,6.44,0,0,1,1.15-.2c.26,0,.53,0,.79-.06a.5.5,0,0,0,.41-.71.69.69,0,0,0-.41-.47,1.81,1.81,0,0,0-1.68.07c-.26.13-.5.33-.78.51"/><path class="cls-1" d="M128.87,37l-1,.18c-.16,0-.32,0-.48,0a2.92,2.92,0,0,0-.65.15.65.65,0,0,0-.44.64.74.74,0,0,0,.42.69,1.44,1.44,0,0,0,2-.69,2.14,2.14,0,0,0,.11-1m.06,1.57-.14.17a2,2,0,0,1-2.45.48,1.3,1.3,0,0,1-.7-1.3,1.2,1.2,0,0,1,.79-1.11,2.94,2.94,0,0,1,1.18-.21,5.25,5.25,0,0,0,.79-.06.5.5,0,0,0,.39-.77.9.9,0,0,0-.37-.4,1.73,1.73,0,0,0-1.64,0A6.71,6.71,0,0,0,126,36v-.68a2.65,2.65,0,0,1,2.74-.52,1.25,1.25,0,0,1,.85,1.17c0,1.12,0,2.24,0,3.39H129c0-.22,0-.44-.07-.73"/><path class="cls-1" d="M129.81,26.36l-.07,0a2,2,0,0,1-1,.25c-.13,0-.26,0-.39,0a2.67,2.67,0,0,0-.62.15.65.65,0,0,0-.45.63.73.73,0,0,0,.44.71,1.4,1.4,0,0,0,2-.73,5.28,5.28,0,0,0,.16-1m.61,2.33h-.52c0-.24-.05-.46-.08-.72-.08.09-.15.16-.2.23a2,2,0,0,1-2.51.33,1.29,1.29,0,0,1-.57-1.3,1.2,1.2,0,0,1,.76-1,3.17,3.17,0,0,1,1.22-.21,4.87,4.87,0,0,0,.76-.06.51.51,0,0,0,.39-.81.86.86,0,0,0-.37-.36,1.75,1.75,0,0,0-1.62,0,8.15,8.15,0,0,0-.82.53v-.66a2.6,2.6,0,0,1,2.76-.51,1.25,1.25,0,0,1,.82,1.16c0,1.09,0,2.19,0,3.28a.89.89,0,0,1,0,.11"/><path class="cls-1" d="M130.25,45.85a1.49,1.49,0,0,0-1.38.83,2.09,2.09,0,0,0,0,2,1.54,1.54,0,0,0,2.78-.1,2.07,2.07,0,0,0,0-1.74,1.51,1.51,0,0,0-1.4-.95m0-.62a2.44,2.44,0,0,1-.09,4.87,2.32,2.32,0,0,1-2.27-2.47,2.3,2.3,0,0,1,2.36-2.4"/><path class="cls-1" d="M149.47,37a2.6,2.6,0,0,0,.29,1,1.5,1.5,0,0,0,1.36.79,1.46,1.46,0,0,0,1.33-.8,2.11,2.11,0,0,0,.09-1.85,1.53,1.53,0,0,0-2.86,0,5.93,5.93,0,0,0-.21.83m1.62,2.44a2.44,2.44,0,1,1,2.35-2.41,2.32,2.32,0,0,1-2.35,2.41"/><path class="cls-1" d="M110.28,37a2.13,2.13,0,0,0,.24,1,1.49,1.49,0,0,0,1.35.82,1.44,1.44,0,0,0,1.35-.8,2,2,0,0,0,0-2.11,1.52,1.52,0,0,0-2.35-.29,1.89,1.89,0,0,0-.54,1.34m1.6-2.39A2.44,2.44,0,1,1,109.54,37a2.3,2.3,0,0,1,2.34-2.43"/><path class="cls-1" d="M134.05,50h-.68v-4.6h.52c0,.23.06.46.1.75l.17-.22a1.78,1.78,0,0,1,2-.58,1.61,1.61,0,0,1,1.16,1.58c0,1,0,2,0,3.06h-.7v-.31c0-.82,0-1.65,0-2.48a1.39,1.39,0,0,0-.06-.4,1.08,1.08,0,0,0-.89-.91,1.2,1.2,0,0,0-1.27.5,2.1,2.1,0,0,0-.35,1.29c0,.66,0,1.31,0,2Z"/><path class="cls-1" d="M122.51,28.69h-.69V24.08h.52c0,.24,0,.48.09.76l.16-.2a1.77,1.77,0,0,1,1.9-.64,1.63,1.63,0,0,1,1.27,1.43,1.58,1.58,0,0,1,0,.38v2.72a1.15,1.15,0,0,1,0,.16h-.68v-.36c0-.82,0-1.65,0-2.48a1.53,1.53,0,0,0-.07-.41,1.07,1.07,0,0,0-.84-.85,1.22,1.22,0,0,0-1.23.4,1.94,1.94,0,0,0-.42,1.32c0,.68,0,1.35,0,2Z"/><path class="cls-1" d="M158.22,39.33h-.67c0-.11,0-.21,0-.31,0-.83,0-1.66,0-2.48a1.84,1.84,0,0,0-.06-.41,1.09,1.09,0,0,0-.9-.91,1.21,1.21,0,0,0-1.25.48,2.08,2.08,0,0,0-.36,1.31c0,.66,0,1.32,0,2v.33h-.68V34.73h.52c0,.23.06.47.09.76l.17-.22a1.76,1.76,0,0,1,1.93-.62,1.62,1.62,0,0,1,1.25,1.6c0,1,0,2,0,3.08"/><path class="cls-1" d="M125.35,45.66v.68l-.3-.19a1.83,1.83,0,0,0-1.46-.26.84.84,0,0,0-.32.14.53.53,0,0,0,0,.91,3.07,3.07,0,0,0,.63.31c.34.14.69.25,1,.41a1.16,1.16,0,0,1,.71,1.27,1.28,1.28,0,0,1-1,1.1,2.76,2.76,0,0,1-2.15-.38l-.17-.12v-.7l.31.22a2.2,2.2,0,0,0,1.58.43,1.36,1.36,0,0,0,.52-.19.55.55,0,0,0,.07-.91,2.42,2.42,0,0,0-.63-.35c-.35-.16-.72-.27-1.07-.43a1.08,1.08,0,0,1-.7-1.09,1.22,1.22,0,0,1,.75-1.12,2.31,2.31,0,0,1,2.28.27"/><path class="cls-1" d="M133.62,39.32l2.44-4h-2.17v-.61h3.38l-2.42,4h2.36v.63Z"/><path class="cls-1" d="M146.36,35.84a2,2,0,0,0-2.85-.08,2.09,2.09,0,0,0,.05,2.57,1.66,1.66,0,0,0,1.45.49,2.14,2.14,0,0,0,1.4-.74v.76a2.51,2.51,0,0,1-3.32,0,2.65,2.65,0,0,1-.15-3.5,2.56,2.56,0,0,1,3.42-.21Z"/><path class="cls-1" d="M118.79,24.51v.69l-.25-.18a2.18,2.18,0,0,0-1.71-.4,1.48,1.48,0,0,0-1.17,1,2.1,2.1,0,0,0,0,1.5,1.67,1.67,0,0,0,2.29,1,6.59,6.59,0,0,0,.91-.54v.67a2.53,2.53,0,0,1-3.29,0,2.65,2.65,0,0,1-.2-3.5,2.54,2.54,0,0,1,3.46-.23"/><path class="cls-1" d="M110.61,28.69v-4h-.73v-.58l.74,0v-.47a1.29,1.29,0,0,1,2-1V23c-1-.2-1.41.14-1.22,1h1.3v.59h-1.34v4Z"/><path class="cls-1" d="M118.05,50l-.2,0-2.17-4.66h.8c.48,1.11,1,2.24,1.47,3.43.51-1.17,1-2.3,1.5-3.44h.79c-.72,1.58-1.46,3.11-2.19,4.65"/><path class="cls-1" d="M109.22,50h-.69V45.37h.52c0,.24.07.49.1.76.71-.92,1.22-1.1,2-.73V46l-.27-.09a1.13,1.13,0,0,0-1.4.57,2.35,2.35,0,0,0-.27,1.13V50Z"/><path class="cls-1" d="M115.63,35.53c.63-.93,1.24-1.16,2-.76v.61l-.25-.08a1.15,1.15,0,0,0-1.45.59,2.38,2.38,0,0,0-.25,1.08v2.35H115V34.73h.52c0,.25,0,.5.08.8"/><rect class="cls-1" x="142.98" y="43.76" width="0.67" height="6.21"/><rect class="cls-1" x="130.52" y="33.12" width="0.68" height="6.2"/><rect class="cls-1" x="132.28" y="34.72" width="0.66" height="4.6"/><rect class="cls-1" x="147.32" y="34.72" width="0.66" height="4.61"/><rect class="cls-1" x="126.44" y="45.36" width="0.66" height="4.61"/><rect class="cls-1" x="113.32" y="24.08" width="0.66" height="4.61"/><path class="cls-1" d="M121.42,50h-.66V45.34h.39l.27,0Z"/><polygon class="cls-1" points="120.39 28.69 119.74 28.69 119.74 24.07 120.06 24.07 120.39 24.07 120.39 28.69"/><path class="cls-1" d="M150.37,34.05v-.61l2-1v.73l-2,.93"/><path class="cls-1" d="M126.76,44.23a.5.5,0,0,1-.52-.52.53.53,0,0,1,1.05,0,.51.51,0,0,1-.53.51"/><path class="cls-1" d="M147.63,32.59a.5.5,0,1,1,0,1,.5.5,0,0,1-.53-.5.5.5,0,0,1,.51-.5"/><path class="cls-1" d="M113.64,22a.5.5,0,1,1,0,1,.49.49,0,0,1-.52-.51.5.5,0,0,1,.52-.49"/><path class="cls-1" d="M121.59,43.72a.52.52,0,0,1-1,0,.52.52,0,0,1,1,0"/><path class="cls-1" d="M120.57,22.44a.49.49,0,0,1-.52.51.48.48,0,0,1-.51-.49.5.5,0,0,1,.52-.51.48.48,0,0,1,.51.49"/><path class="cls-1" d="M132.6,32.59a.5.5,0,1,1,0,1,.5.5,0,1,1,0-1"/><path class="cls-1" d="M111,10.77c0-.29,0-.58-.1-.87A3.18,3.18,0,0,0,110,8.18a3.13,3.13,0,0,0-2.23-.86,3.09,3.09,0,0,0-3.09,2.24,4.13,4.13,0,0,0-.05,2.31A3.12,3.12,0,0,0,106.32,14a3.19,3.19,0,0,0,1.93.24A3,3,0,0,0,110.31,13a3.91,3.91,0,0,0,.67-2.21m1.85-.08a5.21,5.21,0,0,1-1.54,3.87,4.78,4.78,0,0,1-2.79,1.33,5.17,5.17,0,0,1-3.14-.5,4.83,4.83,0,0,1-2.51-3,5.26,5.26,0,0,1,.08-3.5,4.71,4.71,0,0,1,3.6-3.12,5.18,5.18,0,0,1,4,.68A4.82,4.82,0,0,1,112.78,10c0,.26,0,.52,0,.67"/><path class="cls-1" d="M120.57,12v-6h1.81v10h-.3L116,9.65v6.09h-1.8v-10h.3L120.57,12"/><path class="cls-1" d="M126.07,10.64c.61,0,1.2,0,1.78,0a1.63,1.63,0,0,0,1.27-.57,1.66,1.66,0,0,0,.3-1.25,1.36,1.36,0,0,0-1.24-1.28c-.4,0-.8,0-1.21-.06s-.59,0-.9,0Zm0,1.59v3.51h-1.82V5.91h.16c1.13,0,2.26,0,3.39,0a4.3,4.3,0,0,1,2,.46,2.71,2.71,0,0,1,1.4,2,3.7,3.7,0,0,1-.15,2,2.77,2.77,0,0,1-2,1.77,4.49,4.49,0,0,1-1.21.13h-1.78Z"/><text class="cls-6" transform="translate(201.09 14.02)">Onp <tspan class="cls-7" x="32.4" y="0">t</tspan><tspan x="37.6" y="0">e </tspan><tspan class="cls-8" x="49.01" y="0">c</tspan><tspan x="56.08" y="0">one</tspan><tspan class="cls-9" x="81.76" y="0">c</tspan><tspan x="89.13" y="0">ta</tspan><tspan x="0" y="17.6">(01) 634-2222 </tspan><tspan class="cls-10" x="94.65" y="17.6">A</tspan><tspan x="104.4" y="17.6">n</tspan><tspan class="cls-10" x="113.28" y="17.6">e</tspan><tspan class="cls-11" x="121.25" y="17.6">x</tspan><tspan x="128.41" y="17.6">o 2908</tspan><tspan class="cls-12" x="0" y="35.2">ww</tspan><tspan class="cls-13" x="23.94" y="35.2">w</tspan><tspan x="35.09" y="35.2">.go</tspan><tspan class="cls-14" x="56.13" y="35.2">b</tspan><tspan x="64.85" y="35.2">.pe/onp</tspan></text><line class="cls-15" x1="178.57" x2="178.57" y2="50.11"/></g></g></svg>