<svg xmlns="http://www.w3.org/2000/svg" viewBox="0 0 17.14 24"><defs><style>.cls-1{fill:#141b4d;}</style></defs><g id="Capa_2" data-name="Capa 2"><g id="Layer_1" data-name="Layer 1"><path class="cls-1" d="M16,1.71H10.29V0H6.86V1.71H1.13A1.14,1.14,0,0,0,0,2.85V5.27a1.14,1.14,0,0,0,.86,1.1v16.5A1.14,1.14,0,0,0,2,24H15.15a1.14,1.14,0,0,0,1.14-1.13V6.37a1.14,1.14,0,0,0,.85-1.1V2.85A1.14,1.14,0,0,0,16,1.71ZM1.26,3H15.88V5.15H1.26ZM15,22.74H2.11V6.41H15Z"/><path class="cls-1" d="M5.14,21.17a.6.6,0,0,0,.6-.6v-12a.6.6,0,0,0-.6-.6.6.6,0,0,0-.6.6v12A.6.6,0,0,0,5.14,21.17Z"/><path class="cls-1" d="M8.57,21.17a.6.6,0,0,0,.6-.6v-12a.6.6,0,1,0-1.2,0v12A.6.6,0,0,0,8.57,21.17Z"/><path class="cls-1" d="M12,21.17a.6.6,0,0,0,.6-.6v-12a.6.6,0,1,0-1.2,0v12A.6.6,0,0,0,12,21.17Z"/></g></g></svg>