<svg xmlns="http://www.w3.org/2000/svg" viewBox="0 0 83.98 74.79"><defs><style>.cls-1{fill:#ffaf1c;}.cls-2{fill:#141b4d;}.cls-3{fill:#fff;stroke:#141b4d;stroke-linejoin:round;stroke-width:4.35px;}</style></defs><g id="Capa_2" data-name="Capa 2"><g id="Layer_1" data-name="Layer 1"><path class="cls-1" d="M8.27,72.62c-2.71,0-4.76-.85-5.61-2.32s-.56-3.67.79-6L37.17,5.88C38.53,3.52,40.28,2.17,42,2.17s3.46,1.35,4.82,3.7l33.71,58.4c1.36,2.36,1.65,4.55.8,6s-2.9,2.32-5.61,2.32Z"/><path class="cls-2" d="M42,4.35c.69,0,1.82.69,2.94,2.61l33.71,58.4c1.11,1.93,1.14,3.25.8,3.85s-1.51,1.24-3.73,1.24H8.27c-2.22,0-3.38-.64-3.73-1.24s-.31-1.92.8-3.85L39.05,7C40.17,5,41.3,4.35,42,4.35M42,0c-2.43,0-4.86,1.6-6.7,4.79L1.57,63.19c-3.68,6.38-.67,11.6,6.7,11.6H75.71c7.37,0,10.38-5.22,6.7-11.6L48.69,4.79C46.85,1.6,44.42,0,42,0Z"/><polygon class="cls-3" points="46.44 44.77 37.53 44.77 36.19 21.55 47.79 21.55 46.44 44.77"/><path class="cls-3" d="M47.79,56.38A5.81,5.81,0,1,1,42,50.57,5.8,5.8,0,0,1,47.79,56.38Z"/></g></g></svg>