<svg xmlns="http://www.w3.org/2000/svg" viewBox="0 0 13.73 15.3"><defs><style>.cls-1{fill:#ffad1c;}.cls-2{fill:#141b4d;}</style></defs><g id="Capa_2" data-name="Capa 2"><g id="Layer_1" data-name="Layer 1"><path class="cls-1" d="M.44,1.86c0-1.26.9-1.78,2-1.15l10,5.79a1.21,1.21,0,0,1,0,2.3l-10,5.79c-1.09.63-2,.12-2-1.15Z"/><path class="cls-2" d="M1.55,15.3C.62,15.3,0,14.56,0,13.44V1.86C0,.75.62,0,1.55,0a2.21,2.21,0,0,1,1.1.33l10,5.79a1.81,1.81,0,0,1,1,1.53,1.81,1.81,0,0,1-1,1.53L2.65,15A2.29,2.29,0,0,1,1.55,15.3ZM1.55.88c-.6,0-.67.69-.67,1V13.44c0,.3.07,1,.67,1a1.36,1.36,0,0,0,.66-.21l10-5.79a1,1,0,0,0,.6-.77c0-.27-.22-.54-.6-.76l-10-5.8A1.48,1.48,0,0,0,1.55.88Z"/></g></g></svg>