<svg xmlns="http://www.w3.org/2000/svg" viewBox="0 0 19.64 25"><defs><style>.cls-1{fill:#141b4d;}.cls-2{fill:#ffaf1c;}</style></defs><g id="Capa_2" data-name="Capa 2"><g id="Layer_1" data-name="Layer 1"><path class="cls-1" d="M18.5,1.14V22.86H1.15V1.14H18.5M18.69,0H1A1,1,0,0,0,0,1v22.1A1,1,0,0,0,1,24H18.69a1,1,0,0,0,.95-.95V1A1,1,0,0,0,18.69,0Z"/><path class="cls-2" d="M17,18.49a3.6,3.6,0,1,1-3.6-3.6A3.6,3.6,0,0,1,17,18.49Z"/><path class="cls-2" d="M14.64,17.43a1.21,1.21,0,0,0-1.15-1h-.2a1.21,1.21,0,0,0-1.15,1l-1,7c-.09.54.23.75.69.46l.76-.48a1.75,1.75,0,0,1,1.69,0l.75.48c.47.29.78.08.7-.46Z"/><path class="cls-1" d="M15.07,6.9H4.57a.5.5,0,0,1-.5-.5.5.5,0,0,1,.5-.5h10.5a.5.5,0,0,1,.5.5A.5.5,0,0,1,15.07,6.9Z"/><path class="cls-1" d="M15.07,9.7H4.57a.5.5,0,0,1,0-1h10.5a.5.5,0,0,1,0,1Z"/><path class="cls-1" d="M15.07,12.5H4.57a.5.5,0,0,1,0-1h10.5a.5.5,0,0,1,0,1Z"/></g></g></svg>