<svg xmlns="http://www.w3.org/2000/svg" viewBox="0 0 286.5 51.76"><defs><style>.cls-1,.cls-6{fill:none;}.cls-1{stroke:#fff;stroke-miterlimit:10;stroke-width:0.5px;}.cls-2{font-size:22px;font-family:Helvetica-Light, Helvetica Light;font-weight:300;}.cls-2,.cls-5{fill:#fff;}.cls-3{letter-spacing:0.01em;}.cls-4{letter-spacing:0em;}</style></defs><g id="Capa_2" data-name="Capa 2"><g id="Layer_1" data-name="Layer 1"><line class="cls-1" x1="0.25" x2="0.25" y2="51.76"/><line class="cls-1" x1="286.25" x2="286.25" y2="51.76"/><text class="cls-2" transform="translate(84.14 33.44)"><tspan class="cls-3">M</tspan><tspan x="17.95" y="0">is ope</tspan><tspan class="cls-4" x="72.09" y="0">r</tspan><tspan x="79.18" y="0">aciones</tspan></text><path class="cls-5" d="M60.25,34.62l-1.8-6.8a1.2,1.2,0,1,0-2.31.62l-.22-.81a1.2,1.2,0,0,0-2.33.59l-.2-.78a1.2,1.2,0,1,0-2.32.61l-1-3.93a1.25,1.25,0,1,0-2.42.65L49.79,33l-.92-.66a1.24,1.24,0,0,0-.83-.31,1.27,1.27,0,0,0-.73,2.31h0l5,3.59.43.22.07,0a2.57,2.57,0,0,0,.53.23l.22.06.19,0,0,0,.17,0a4.72,4.72,0,0,0,.68.05C59.61,38.63,60.4,35.19,60.25,34.62Z"/><path class="cls-5" d="M48.71,20.75a3.58,3.58,0,0,0-1.19,7l-.41-1.55a2.43,2.43,0,1,1,4-1.29l.28,1,.35-.13.29-.05a3.44,3.44,0,0,0,.29-1.4A3.59,3.59,0,0,0,48.71,20.75Z"/><path class="cls-5" d="M48.69,17.15a7.16,7.16,0,0,0-1.35,14.2,2,2,0,0,1,.7-.13,2.09,2.09,0,0,1,.43,0l-.26-1a6,6,0,1,1,6.49-6,6.21,6.21,0,0,1-.22,1.62l.28,0a2,2,0,0,1,.86.2,7.16,7.16,0,0,0-6.93-9Z"/><path class="cls-5" d="M46.27,34.43a1.94,1.94,0,0,1-.31-.91,9.58,9.58,0,1,1,12.35-9.17,9.36,9.36,0,0,1-.2,1.93,2.11,2.11,0,0,1,1,.9,11,11,0,0,0,.37-2.83A10.73,10.73,0,1,0,46.7,34.89Z"/><circle class="cls-6" cx="49.14" cy="26.13" r="20"/></g></g></svg>