<svg xmlns="http://www.w3.org/2000/svg" viewBox="0 0 286.5 51.76"><defs><style>.cls-1,.cls-8{fill:none;}.cls-1{stroke:#fff;stroke-miterlimit:10;stroke-width:0.5px;}.cls-2{font-size:22px;font-family:Helvetica-Bold, Helvetica Bold;font-weight:700;}.cls-2,.cls-7{fill:#ffb81c;}.cls-3{letter-spacing:-0.01em;}.cls-4{letter-spacing:-0.01em;}.cls-5{letter-spacing:0em;}.cls-6{letter-spacing:-0.01em;}</style></defs><g id="Capa_2" data-name="Capa 2"><g id="Layer_1" data-name="Layer 1"><line class="cls-1" x1="0.25" x2="0.25" y2="51.76"/><line class="cls-1" x1="286.25" x2="286.25" y2="51.76"/><text class="cls-2" transform="translate(84.14 33.38)">Bu<tspan class="cls-3" x="24.05" y="0">z</tspan><tspan x="33.31" y="0">ón de </tspan><tspan class="cls-4" x="90.35" y="0">c</tspan><tspan x="100.08" y="0">o</tspan><tspan class="cls-5" x="112.16" y="0">r</tspan><tspan class="cls-6" x="119.44" y="0">r</tspan><tspan x="126.41" y="0">eo</tspan></text><path class="cls-7" d="M59.35,18.35a1.14,1.14,0,0,1,1.14,1.14V32.77a1.14,1.14,0,0,1-1.14,1.14H38.93a1.15,1.15,0,0,1-1.15-1.14V19.49a1.15,1.15,0,0,1,1.15-1.14H59.35m0-1.15H38.93a2.3,2.3,0,0,0-2.29,2.29V32.77a2.3,2.3,0,0,0,2.29,2.29H59.35a2.3,2.3,0,0,0,2.29-2.29V19.49a2.3,2.3,0,0,0-2.29-2.29Z"/><path class="cls-7" d="M49.14,28.49a.59.59,0,0,1-.37-.14L38.59,19.86a.56.56,0,0,1-.08-.8.57.57,0,0,1,.81-.08l9.82,8.19L59.35,19a.57.57,0,1,1,.71.89L49.49,28.36A.58.58,0,0,1,49.14,28.49Z"/><path class="cls-7" d="M59.71,33.44a.58.58,0,0,1-.37-.13l-5.94-5a.56.56,0,0,1-.08-.8.57.57,0,0,1,.81-.08l5.94,5a.57.57,0,0,1,.07.81A.57.57,0,0,1,59.71,33.44Z"/><path class="cls-7" d="M39,33.44a.56.56,0,0,1-.44-.21.58.58,0,0,1,.08-.81l6.17-5a.57.57,0,1,1,.72.89l-6.17,5A.58.58,0,0,1,39,33.44Z"/><circle class="cls-8" cx="49.14" cy="26.13" r="20"/></g></g></svg>