<svg xmlns="http://www.w3.org/2000/svg" viewBox="0 0 75 75"><defs><style>.cls-1{fill:#fff;}.cls-2{fill:#212549;}.cls-3{fill:#fbaa19;}</style></defs><title>Recurso 11</title><g id="Capa_2" data-name="Capa 2"><g id="Layer_2" data-name="Layer 2"><path class="cls-1" d="M67.57,67.57c-10.49,10.48-47.78,9.32-59.31,0s-10.48-48.83,0-59.31,50-11.53,59.31,0S78.05,57.08,67.57,67.57Z"/><path class="cls-2" d="M44.21,43a9.13,9.13,0,0,1,9.12,9.11v9.12H21.67V52.12A9.13,9.13,0,0,1,30.79,43H44.21m0-4.31H30.79A13.42,13.42,0,0,0,17.37,52.12V65.55H57.63V52.12A13.42,13.42,0,0,0,44.21,38.7Z"/><path class="cls-3" d="M44.21,45.88H30.79a6.26,6.26,0,0,0-6.25,6.24v6.25H50.46V52.12a6.25,6.25,0,0,0-6.25-6.24Z"/><path class="cls-2" d="M37.5,13.76a9.12,9.12,0,1,1-9.12,9.12,9.13,9.13,0,0,1,9.12-9.12m0-4.3A13.42,13.42,0,1,0,50.92,22.88,13.42,13.42,0,0,0,37.5,9.46Z"/></g></g></svg>