<svg xmlns="http://www.w3.org/2000/svg" viewBox="0 0 20 20"><defs><style>.cls-1{fill:#fff;}</style></defs><title>Recurso 6</title><g id="Capa_2" data-name="Capa 2"><g id="Layer_1" data-name="Layer 1"><path class="cls-1" d="M17.07,5h-.55V2.93A2.93,2.93,0,0,0,13.59,0H6.41A2.93,2.93,0,0,0,3.48,2.93V5H2.93A2.93,2.93,0,0,0,0,8v4.69a2.93,2.93,0,0,0,2.93,2.93h.55v2.65A1.75,1.75,0,0,0,5.23,20h9.54a1.76,1.76,0,0,0,1.75-1.76V15.59h.55A2.93,2.93,0,0,0,20,12.66V8A2.93,2.93,0,0,0,17.07,5ZM4.65,2.93A1.76,1.76,0,0,1,6.41,1.17h7.18a1.76,1.76,0,0,1,1.76,1.76V5H4.65Zm10.7,15.31a.58.58,0,0,1-.58.59H5.23a.58.58,0,0,1-.58-.59V12.46h10.7Zm3.48-5.58a1.75,1.75,0,0,1-1.76,1.75h-.55V12.46h.36a.59.59,0,0,0,0-1.17H3.13a.59.59,0,1,0,0,1.17h.35v1.95H2.93a1.75,1.75,0,0,1-1.76-1.75V8A1.76,1.76,0,0,1,2.93,6.21H17.07A1.76,1.76,0,0,1,18.83,8Z"/><path class="cls-1" d="M11.56,13.79H8.44a.59.59,0,1,0,0,1.17h3.12a.59.59,0,1,0,0-1.17Z"/><path class="cls-1" d="M11.56,16.29H8.44a.59.59,0,1,0,0,1.17h3.12a.59.59,0,1,0,0-1.17Z"/><path class="cls-1" d="M5,7.54H3.13a.59.59,0,1,0,0,1.17H5A.59.59,0,0,0,5,7.54Z"/></g></g></svg>