<svg xmlns="http://www.w3.org/2000/svg" viewBox="0 0 20.98 19.09"><defs><style>.cls-1{fill:#141b4d;}</style></defs><title>Recurso 2</title><g id="Capa_2" data-name="Capa 2"><g id="Layer_2" data-name="Layer 2"><path class="cls-1" d="M20.52,8.08A.53.53,0,0,1,20.25,8L10.49,1,.73,8a.45.45,0,0,1-.64-.11.45.45,0,0,1,.1-.64l10-7.17a.48.48,0,0,1,.54,0l10,7.17a.46.46,0,0,1,.1.64A.44.44,0,0,1,20.52,8.08Z"/><polygon class="cls-1" points="18.17 7.62 18.17 8.54 18.17 11.31 18.17 18.17 2.81 18.17 2.81 11.31 2.81 8.54 2.81 7.62 1.9 7.62 1.9 19.09 19.09 19.09 19.09 7.62 18.17 7.62"/><path class="cls-1" d="M7,12.94a1.53,1.53,0,0,0,.28.76,1.67,1.67,0,0,0,1.32.45,2.8,2.8,0,0,0,.9-.12.86.86,0,0,0,.66-.85.65.65,0,0,0-.32-.57,3.6,3.6,0,0,0-1-.34L8,12.09a4.94,4.94,0,0,1-1.62-.56,1.79,1.79,0,0,1-.75-1.6,2.12,2.12,0,0,1,.73-1.64,3.1,3.1,0,0,1,2.14-.66,3.32,3.32,0,0,1,2,.62A2.21,2.21,0,0,1,11.42,10H9.94a1.05,1.05,0,0,0-.6-.94,1.92,1.92,0,0,0-.91-.19,1.75,1.75,0,0,0-1,.24.77.77,0,0,0-.36.67.64.64,0,0,0,.36.59,4.31,4.31,0,0,0,1,.31l1.29.3a3.22,3.22,0,0,1,1.27.54,1.79,1.79,0,0,1,.66,1.5,2.12,2.12,0,0,1-.78,1.68,3.3,3.3,0,0,1-2.2.67,3.59,3.59,0,0,1-2.29-.66,2.17,2.17,0,0,1-.84-1.81Z"/><path class="cls-1" d="M14.25,7.62h1.18l-2.86,7.6H11.39Z"/></g></g></svg>