<svg xmlns="http://www.w3.org/2000/svg" viewBox="0 0 21.19 19.28"><defs><style>.cls-1{fill:#141b4d;}.cls-2{fill:#212449;}.cls-3{fill:#ffaa1c;}</style></defs><title>Recurso 2</title><g id="Capa_2" data-name="Capa 2"><g id="Layer_1" data-name="Layer 1"><path class="cls-1" d="M20.72,8.16a.47.47,0,0,1-.27-.08L10.59,1,.73,8.08A.46.46,0,0,1,.09,8a.46.46,0,0,1,.1-.65L10.32.09a.45.45,0,0,1,.54,0L21,7.32A.47.47,0,0,1,21.1,8,.45.45,0,0,1,20.72,8.16Z"/><path class="cls-2" d="M12,14.42a2,2,0,0,1,2,2v2H7.18v-2a2,2,0,0,1,2-2H12m0-.93H9.15a2.89,2.89,0,0,0-2.9,2.89v2.9h8.69v-2.9A2.89,2.89,0,0,0,12,13.49Z"/><path class="cls-3" d="M12,15H9.15A1.35,1.35,0,0,0,7.8,16.38v1.35h5.59V16.38A1.36,1.36,0,0,0,12,15Z"/><path class="cls-2" d="M10.59,8.11a2,2,0,1,1-2,2,2,2,0,0,1,2-2m0-.93a2.9,2.9,0,1,0,2.9,2.89,2.9,2.9,0,0,0-2.9-2.89Z"/><polygon class="cls-1" points="18.35 7.7 18.35 8.63 18.35 11.43 18.35 18.35 2.84 18.35 2.84 11.43 2.84 8.63 2.84 7.7 1.91 7.7 1.91 19.28 19.28 19.28 19.28 7.7 18.35 7.7"/></g></g></svg>