<svg xmlns="http://www.w3.org/2000/svg" viewBox="0 0 150.5 50"><defs><style>.cls-1{fill:#fff;}</style></defs><title>Recurso 3</title><g id="Capa_2" data-name="Capa 2"><g id="Layer_2" data-name="Layer 2"><path class="cls-1" d="M0,25A25,25,0,0,0,23.83,50V0A25,25,0,0,0,0,25"/><path class="cls-1" d="M36.07,50H50V36.08A27.52,27.52,0,0,1,36.07,50"/><path class="cls-1" d="M50,13.92V0H36.07A27.52,27.52,0,0,1,50,13.92"/><path class="cls-1" d="M50,25A25,25,0,0,0,26.17,0V50A25,25,0,0,0,50,25"/><path class="cls-1" d="M78.52,25V41.28h3.19A20.64,20.64,0,0,0,81.71,0H62.25A27.39,27.39,0,0,1,78.52,25"/><path class="cls-1" d="M52.35,0V50H76.17V25A25,25,0,0,0,52.35,0"/><path class="cls-1" d="M115.57,6.57a6.16,6.16,0,1,1,12.32,0,6.16,6.16,0,1,1-12.32,0Zm10.34,0a4.19,4.19,0,1,0-8.36,0c0,2.63,1.71,4.51,4.14,4.51A4.22,4.22,0,0,0,125.91,6.55Z"/><path class="cls-1" d="M137.68.63h1.92V12.78h-.31l-7.62-8.12v7.92h-1.92V.39h.32l7.61,8.1Z"/><path class="cls-1" d="M146.21.63c2.86,0,4.29,1.47,4.29,3.71s-1.43,3.83-4.23,3.83h-2.21v4.41h-1.94V.63Zm0,5.84c1.44,0,2.35-.67,2.35-2.13s-.87-2-2.39-2h-2.07V6.47Z"/><path class="cls-1" d="M119,37.39l-3.16-7v0h1.09c.74,1.72,1.47,3.44,2.17,5.16h0c.7-1.71,1.44-3.44,2.17-5.16h1.07v0l-3.14,7Z"/><path class="cls-1" d="M123,30.41a.6.6,0,0,1,.63-.59.61.61,0,0,1,.65.59.62.62,0,0,1-.65.61A.61.61,0,0,1,123,30.41Zm.18,6.89V32.17h.92V37.3Z"/><path class="cls-1" d="M128.6,32.22V33a2.2,2.2,0,0,0-.77-.17c-.69,0-1.35.62-1.35,1.92V37.3h-.92V32.17h.71l.11,1a1.59,1.59,0,0,1,1.49-1.14A1.56,1.56,0,0,1,128.6,32.22Z"/><path class="cls-1" d="M132.47,32.92h-1.55V35.5c0,.81.16,1.14.68,1.14a1.52,1.52,0,0,0,.77-.24h0v.72a1.75,1.75,0,0,1-1.06.31c-1.33,0-1.33-1.23-1.33-1.61v-2.9h-.9v-.75h.9v-1l.9-.79h0v1.79h1.55Z"/><path class="cls-1" d="M137,32.17h.91V37.3h-.71l-.1-.94a1.86,1.86,0,0,1-1.71,1.07c-1.17,0-1.92-.82-1.92-2.24v-3h.92v2.76c0,1.33.54,1.72,1.22,1.72s1.39-.57,1.39-1.86Z"/><path class="cls-1" d="M143.54,33.76V37.3h-.72l-.08-.84a2,2,0,0,1-1.8,1,1.68,1.68,0,0,1-1.87-1.59c0-1.19,1.06-1.57,2.24-1.57.82,0,1.32,0,1.32-.6s-.51-.83-1.26-.83a2.73,2.73,0,0,0-1.93.8h0l0-.88a3.25,3.25,0,0,1,2-.75C142.48,32,143.54,32.46,143.54,33.76Zm-.87,1.43v-.56c-.22.31-.7.38-1.42.38s-1.26.28-1.26.83.59.85,1.14.85A1.47,1.47,0,0,0,142.67,35.19Z"/><path class="cls-1" d="M144.86,37.3V30.38h.92V37.3Z"/><rect class="cls-1" x="115.9" y="20.4" width="13.36" height="0.75"/></g></g></svg>