<svg xmlns="http://www.w3.org/2000/svg" viewBox="0 0 121.18 69.1"><defs><style>.cls-1,.cls-3{fill:#e6e6e6;}.cls-2{fill:none;}.cls-2,.cls-3{stroke:#618786;stroke-miterlimit:10;stroke-width:4.5px;}.cls-3{stroke-linecap:round;}</style></defs><title>Recurso 6</title><g id="Capa_2" data-name="Capa 2"><g id="Layer_1" data-name="Layer 1"><path class="cls-1" d="M118.93,60.86a6,6,0,0,1-6,6H32.06a14.26,14.26,0,0,1-9.76-4.66l-18.5-23a7.8,7.8,0,0,1,0-9.34l18.5-23a14.23,14.23,0,0,1,9.76-4.67h80.88a6,6,0,0,1,6,6Z"/><path class="cls-2" d="M118.93,60.86a6,6,0,0,1-6,6H32.06a14.26,14.26,0,0,1-9.76-4.66l-18.5-23a7.8,7.8,0,0,1,0-9.34l18.5-23a14.23,14.23,0,0,1,9.76-4.67h80.88a6,6,0,0,1,6,6Z"/><line class="cls-3" x1="48.8" y1="17.88" x2="82.14" y2="51.22"/><line class="cls-3" x1="82.14" y1="17.88" x2="48.8" y2="51.22"/></g></g></svg>