<svg xmlns="http://www.w3.org/2000/svg" viewBox="0 0 19.28 15.63"><defs><style>.cls-1{fill:#141b4d;}.cls-2{fill:#ffaf1c;}</style></defs><title>Recurso 4</title><g id="Capa_2" data-name="Capa 2"><g id="Layer_1" data-name="Layer 1"><path class="cls-1" d="M18.39,2.75V13.87a.87.87,0,0,1-.88.88H1.77a.88.88,0,0,1-.89-.88V2.75H18.39m.89-.88H0v12a1.76,1.76,0,0,0,1.77,1.76H17.51a1.76,1.76,0,0,0,1.77-1.76v-12Z"/><path class="cls-1" d="M9.25.88a.88.88,0,0,1,.88.89v.1H.88v-.1A.89.89,0,0,1,1.77.88H9.25m0-.88H1.77A1.77,1.77,0,0,0,0,1.77v1H11v-1A1.77,1.77,0,0,0,9.25,0Z"/><rect class="cls-2" x="2.75" y="4.62" width="13.77" height="8.26"/></g></g></svg>