<svg xmlns="http://www.w3.org/2000/svg" viewBox="0 0 35.36 45"><defs><style>.cls-1{fill:#171b4d;}.cls-2{fill:#faaf17;}</style></defs><title>Recurso 9</title><g id="Capa_2" data-name="Capa 2"><g id="Layer_2" data-name="Layer 2"><path class="cls-1" d="M33.3,2.06V42.94H2.06V2.06H33.3M33.64,0H1.72A1.72,1.72,0,0,0,0,1.72V43.28A1.72,1.72,0,0,0,1.72,45H33.64a1.73,1.73,0,0,0,1.72-1.72V1.72A1.73,1.73,0,0,0,33.64,0Z"/><path class="cls-2" d="M28.93,11.25a4.82,4.82,0,1,1-4.82-4.82A4.82,4.82,0,0,1,28.93,11.25Z"/><path class="cls-1" d="M28.93,20.31H8a1,1,0,0,1-1-1,1,1,0,0,1,1-1H28.93a1,1,0,0,1,1,1A1,1,0,0,1,28.93,20.31Z"/><path class="cls-1" d="M28.93,26.75H8a1,1,0,1,1,0-2.07H28.93a1,1,0,0,1,0,2.07Z"/><path class="cls-1" d="M28.93,33.17H8a1,1,0,1,1,0-2.06H28.93a1,1,0,0,1,0,2.06Z"/><path class="cls-1" d="M28.93,39.6H8a1,1,0,1,1,0-2.06H28.93a1,1,0,0,1,0,2.06Z"/></g></g></svg>