<svg xmlns="http://www.w3.org/2000/svg" viewBox="0 0 61 84.98"><defs><style>.cls-1{fill:#212549;}.cls-2{fill:#fbaa19;}</style></defs><title>Recurso 8</title><g id="Capa_2" data-name="Capa 2"><g id="Layer_2" data-name="Layer 2"><path class="cls-1" d="M40.66,50.84A13.83,13.83,0,0,1,54.48,64.65V78.47h-48V64.65A13.83,13.83,0,0,1,20.33,50.84H40.66m0-6.52H20.33A20.33,20.33,0,0,0,0,64.65V85H61V64.65A20.33,20.33,0,0,0,40.66,44.32Z"/><path class="cls-2" d="M40.66,55.18H20.33a9.49,9.49,0,0,0-9.47,9.47v9.47H50.14V64.65a9.49,9.49,0,0,0-9.48-9.47Z"/><path class="cls-1" d="M30.5,6.52A13.82,13.82,0,1,1,16.68,20.33,13.83,13.83,0,0,1,30.5,6.52M30.5,0A20.34,20.34,0,1,0,50.83,20.33,20.33,20.33,0,0,0,30.5,0Z"/></g></g></svg>