<svg xmlns="http://www.w3.org/2000/svg" xmlns:xlink="http://www.w3.org/1999/xlink" viewBox="0 0 120 96.22"><defs><style>.cls-1{fill:url(#linear-gradient);}.cls-2{fill:#fff;}</style><linearGradient id="linear-gradient" y1="48.11" x2="120" y2="48.11" gradientUnits="userSpaceOnUse"><stop offset="0" stop-color="#171b4d"/><stop offset="1" stop-color="#64afac"/></linearGradient></defs><title>Recurso 7</title><g id="Capa_2" data-name="Capa 2"><g id="Layer_2" data-name="Layer 2"><rect class="cls-1" width="120" height="96.22" rx="40"/><path class="cls-2" d="M81.26,33.19H79.62V26.85A8.82,8.82,0,0,0,70.81,18H49.19a8.82,8.82,0,0,0-8.81,8.81v6.34H38.74A8.82,8.82,0,0,0,29.93,42V56.1a8.82,8.82,0,0,0,8.81,8.81h1.64v8a5.29,5.29,0,0,0,5.29,5.28H74.33a5.3,5.3,0,0,0,5.29-5.28v-8h1.64a8.82,8.82,0,0,0,8.81-8.81V42A8.82,8.82,0,0,0,81.26,33.19ZM43.91,26.85a5.29,5.29,0,0,1,5.28-5.28H70.81a5.29,5.29,0,0,1,5.28,5.28v6.34H43.91ZM76.09,72.9a1.76,1.76,0,0,1-1.76,1.76H45.67a1.76,1.76,0,0,1-1.76-1.76V55.51H76.09ZM86.55,56.1a5.3,5.3,0,0,1-5.29,5.29H79.62V55.51h1a1.76,1.76,0,1,0,0-3.52H39.33a1.76,1.76,0,1,0,0,3.52h1.05v5.88H38.74a5.3,5.3,0,0,1-5.29-5.29V42a5.29,5.29,0,0,1,5.29-5.28H81.26A5.3,5.3,0,0,1,86.55,42Z"/><path class="cls-2" d="M64.7,59.51H55.3a1.76,1.76,0,0,0,0,3.52h9.4a1.76,1.76,0,1,0,0-3.52Z"/><path class="cls-2" d="M64.7,67H55.3a1.77,1.77,0,0,0,0,3.53h9.4a1.77,1.77,0,0,0,0-3.53Z"/><path class="cls-2" d="M45,40.71H39.33a1.77,1.77,0,1,0,0,3.53H45a1.77,1.77,0,1,0,0-3.53Z"/></g></g></svg>