<svg xmlns="http://www.w3.org/2000/svg" viewBox="0 0 19.23 19.21"><defs><style>.cls-1{fill:#141b4d;}.cls-2{fill:#ffad1c;}.cls-3{fill:#fff;}</style></defs><title>Recurso 3</title><g id="Capa_2" data-name="Capa 2"><g id="Layer_1" data-name="Layer 1"><path class="cls-1" d="M17.69,11.61a1.47,1.47,0,0,0-.54.1A1.55,1.55,0,0,0,16,11.19a1.48,1.48,0,0,0-.7.17l-.52.31A1.53,1.53,0,0,0,13,11.36l-2.22,1.35-1.56-.45-1.56-.42L7,11.7l-.21,0a1.29,1.29,0,0,0-.34,0,6.9,6.9,0,0,0-.69.14l-1.54.39v-.52a1,1,0,0,0-1-1H1a1,1,0,0,0-1,1v6.58a1,1,0,0,0,1,1H3.3a1,1,0,0,0,1-1v-.37l2.67.56c1,.2,1.71.35,2.3.46l.9.15.6.06a1.29,1.29,0,0,0,.36-.06,5,5,0,0,0,.75-.3,36.33,36.33,0,0,0,3.65-2.22c1-.66,1.89-1.29,2.56-1.76l.55-.37a1.55,1.55,0,0,0-.91-2.79Zm-7,6.63h0l-.48,0c-.87-.13-2.52-.46-3.74-.72L4.76,17.1,4.26,17v-3.9l.16,0c.34-.1.85-.23,1.3-.34l.62-.15.21,0H6.7l1,.22c1.47.39,3.79,1.09,4.25,1.23a1.74,1.74,0,0,1,.68.35.85.85,0,0,1,.17.23.6.6,0,0,1,.06.27.78.78,0,0,1-.23.55.76.76,0,0,1-.54.23l-.82-.08-2.8-.36a.43.43,0,1,0-.11.86l2.81.36.89.09h0a1.67,1.67,0,0,0,1.66-1.65,1.59,1.59,0,0,0-.15-.65,1.72,1.72,0,0,0-.6-.67,2.74,2.74,0,0,0-.79-.36l-.3-.09,1.51-.92a.67.67,0,0,1,.29-.08.63.63,0,0,1,.33.09l-.71.41a.4.4,0,0,0-.19.27.42.42,0,0,0,0,.33.44.44,0,0,0,.38.21.46.46,0,0,0,.22-.06l2-1.17a.65.65,0,0,1,.66,0l-2.16,1.29a.39.39,0,0,0-.21.26A.48.48,0,0,0,14,14a.44.44,0,0,0,.38.21.46.46,0,0,0,.22-.06l2.47-1.47.08,0a.61.61,0,0,0,.16-.12l.05,0a.67.67,0,0,1,.78.12.71.71,0,0,1,.19.48.65.65,0,0,1-.25.53l-.54.37c-.85.6-2.15,1.5-3.41,2.32-.89.57-1.63,1-2.2,1.34a7.77,7.77,0,0,1-.83.41,1.41,1.41,0,0,1-.27.09A.37.37,0,0,1,10.73,18.24ZM.87,11.67a.1.1,0,0,1,.09-.1H3.3a.11.11,0,0,1,.1.1v6.58a.11.11,0,0,1-.1.1H1a.1.1,0,0,1-.09-.1Z"/><rect class="cls-2" x="1.31" y="12.06" width="1.55" height="5.8"/><circle class="cls-3" cx="9.64" cy="8.39" r="4.93"/><path class="cls-1" d="M9.64,3.91A4.49,4.49,0,1,1,5.15,8.39,4.49,4.49,0,0,1,9.64,3.91m0-.88A5.37,5.37,0,1,0,15,8.39,5.36,5.36,0,0,0,9.64,3Z"/><path class="cls-1" d="M7.45,9.29a1,1,0,0,0,.18.48,1,1,0,0,0,.82.28A1.76,1.76,0,0,0,9,10a.55.55,0,0,0,.42-.54.41.41,0,0,0-.21-.36,2.15,2.15,0,0,0-.64-.21l-.5-.11a3.1,3.1,0,0,1-1-.36,1.13,1.13,0,0,1-.47-1,1.33,1.33,0,0,1,.46-1A2,2,0,0,1,8.41,6a2.05,2.05,0,0,1,1.26.39,1.4,1.4,0,0,1,.55,1.13H9.29a.68.68,0,0,0-.37-.6,1.43,1.43,0,0,0-.58-.11,1.08,1.08,0,0,0-.61.15.48.48,0,0,0-.23.42.39.39,0,0,0,.22.37,3.13,3.13,0,0,0,.62.19l.81.19a2.08,2.08,0,0,1,.8.34,1.13,1.13,0,0,1,.42.95,1.32,1.32,0,0,1-.49,1.05,2.08,2.08,0,0,1-1.39.42,2.3,2.3,0,0,1-1.44-.41,1.38,1.38,0,0,1-.52-1.14Z"/><path class="cls-1" d="M12,6h.75l-1.81,4.77H10.2Z"/><polygon class="cls-3" points="8.4 3.47 6.75 0.44 12.5 0.44 10.98 3.47 8.4 3.47"/><path class="cls-1" d="M11.78.88,10.71,3H8.66L7.49.88h4.29M13.21,0H6l.71,1.3L7.89,3.45l.25.46h3.11l.25-.49,1.07-2.14L13.21,0Z"/><polygon class="cls-3" points="12.15 13.63 6.94 12.07 5.71 12.07 4.26 12.53 4.26 15.51 7.94 15.51 12.15 16.09 13.19 15.55 13.31 14.32 12.15 13.63"/><path class="cls-1" d="M13.54,14.18a1.68,1.68,0,0,0-.6-.68,2.74,2.74,0,0,0-.79-.36S8,11.94,7.62,11.84L7,11.7l-.21,0a1.29,1.29,0,0,0-.34,0,6.9,6.9,0,0,0-.69.14l-1.54.39v.9l.16,0c.34-.1.85-.23,1.3-.34l.62-.15.21,0H6.7l1,.22c1.47.39,3.79,1.09,4.25,1.23a1.74,1.74,0,0,1,.68.35.85.85,0,0,1,.17.23.6.6,0,0,1,.06.27.79.79,0,0,1-.77.78l-.82-.08-2.8-.36a.43.43,0,1,0-.11.86l2.81.36.89.09h0a1.67,1.67,0,0,0,1.66-1.65A1.51,1.51,0,0,0,13.54,14.18Z"/></g></g></svg>