<svg xmlns="http://www.w3.org/2000/svg" viewBox="0 0 45 45"><defs><style>.cls-1{fill:#141b4d;}.cls-2,.cls-3{fill:#ffaf1c;}.cls-3{stroke:#141b4d;stroke-linejoin:round;stroke-width:2.07px;}</style></defs><g id="Capa_2" data-name="Capa 2"><g id="Layer_2" data-name="Layer 2"><path class="cls-1" d="M22.5,2.07A14,14,0,0,1,36.36,14H8.65a14,14,0,0,1,13.85-12M22.5,0A16.07,16.07,0,0,0,6.43,16.07v0H38.57v0A16.06,16.06,0,0,0,22.5,0Z"/><path class="cls-1" d="M33.38,16.12V42.93H11.73V16.12H33.38m2.06-2.07H9.67V45H35.44V14.05Z"/><path class="cls-1" d="M9.66,16.12V42.94H2.07V16.12H9.66m2.06-2.07H0V45H11.72V14.05Z"/><path class="cls-1" d="M42.93,16.12V42.94H35.34V16.12h7.59M45,14.05H33.28V45H45V14.05Z"/><path class="cls-2" d="M18.05,44V31.26a4.51,4.51,0,1,1,9,0V44Z"/><path class="cls-1" d="M22.55,27.78A3.48,3.48,0,0,1,26,31.26V42.93h-7V31.26a3.48,3.48,0,0,1,3.47-3.48m0-2.07A5.55,5.55,0,0,0,17,31.26V45H28.1V31.26a5.55,5.55,0,0,0-5.55-5.55Z"/><path class="cls-3" d="M27.65,15a4.82,4.82,0,1,1-4.82-4.82A4.82,4.82,0,0,1,27.65,15Z"/></g></g></svg>