<?xml version="1.0" encoding="utf-8"?>
<!-- Generator: Adobe Illustrator 26.3.1, SVG Export Plug-In . SVG Version: 6.00 Build 0)  -->
<svg version="1.1" id="Capa_1" xmlns="http://www.w3.org/2000/svg" xmlns:xlink="http://www.w3.org/1999/xlink" x="0px" y="0px"
	 viewBox="0 0 72 72" style="enable-background:new 0 0 72 72;" xml:space="preserve">
<style type="text/css">
	.st0{fill:#141B4D;}
	.st1{fill:#FFB81C;}
	.st2{fill:#FFFFFF;}
	.st3{fill:#FFAF1C;}
	.st4{fill:#FF6D6A;}
</style>
<g>
	<path class="st0" d="M72,67.01c0,2.75-2.25,4.99-4.99,4.99H4.99C2.25,72,0,69.75,0,67.01V4.99C0,2.25,2.25,0,4.99,0h62.01
		C69.75,0,72,2.25,72,4.99V67.01z"/>
</g>
<g>
	<path class="st3" d="M41.13,39.72c4.12,0,7.47,3.35,7.47,7.47v7.47H23.4v-7.47c0-4.12,3.35-7.47,7.47-7.47H41.13 M41.13,36.92
		H30.87c-5.67,0-10.27,4.6-10.27,10.27v10.27H51.4V47.19C51.4,41.52,46.81,36.92,41.13,36.92L41.13,36.92z"/>
	<path class="st3" d="M36,17.34c4.12,0,7.47,3.35,7.47,7.47c0,4.12-3.35,7.47-7.47,7.47c-4.12,0-7.47-3.35-7.47-7.47
		C28.53,20.69,31.88,17.34,36,17.34 M36,14.54c-5.67,0-10.27,4.6-10.27,10.27c0,5.67,4.6,10.27,10.27,10.27
		c5.67,0,10.27-4.6,10.27-10.27C46.27,19.14,41.67,14.54,36,14.54L36,14.54z"/>
</g>
</svg>
