<?xml version="1.0" encoding="utf-8"?>
<!-- Generator: Adobe Illustrator 26.3.1, SVG Export Plug-In . SVG Version: 6.00 Build 0)  -->
<svg version="1.1" id="Capa_1" xmlns="http://www.w3.org/2000/svg" xmlns:xlink="http://www.w3.org/1999/xlink" x="0px" y="0px"
	 viewBox="0 0 65 63" style="enable-background:new 0 0 65 63;" xml:space="preserve">
<style type="text/css">
	.st0{fill:#FFFFFF;}
</style>
<g>
	<path class="st0" d="M26.7,29.65c0,3.05,2.61,5.52,5.82,5.52c3.22,0,5.82-2.47,5.82-5.52v-3.9h-0.01c-0.1-2.93-2.66-5.29-5.8-5.29
		c-3.14,0-5.7,2.35-5.82,5.3v0.02c0,0.07-0.01,0.13-0.01,0.2s0,0.13,0.01,0.19v3.29C26.71,29.52,26.7,29.59,26.7,29.65z M29.5,29.6
		v-0.05c0-0.03,0-0.06,0-0.09v-3.29c0-0.03,0-0.06,0-0.09c0,0,0-0.05,0-0.06v-0.05v-0.06v-0.05c0-0.01,0-0.02,0-0.03
		c0.08-1.44,1.41-2.58,3.03-2.58c1.64,0,2.97,1.15,3.03,2.62c0,0.02,0,0.04,0,0.06v3.72c0,1.5-1.36,2.73-3.03,2.73
		c-1.67,0-3.03-1.22-3.03-2.72V29.6z"/>
	<path class="st0" d="M59.08,43.45h-1.83c0-0.06,0.02-0.12,0.02-0.18V14.52c0-1.62-1.32-2.94-2.94-2.94h-43.6
		c-1.62,0-2.94,1.31-2.94,2.93v28.76c0,0.06,0.01,0.12,0.02,0.18H5.92C4,43.45,2.45,45,2.45,46.92v0.75c0,1.91,1.55,3.47,3.47,3.47
		h53.16c1.91,0,3.47-1.55,3.47-3.47v-0.75C62.55,45,60.99,43.45,59.08,43.45z M10.58,14.52c0-0.08,0.07-0.15,0.15-0.15h43.6
		c0.08,0,0.15,0.07,0.15,0.15v28.76c0,0.08-0.07,0.15-0.15,0.15H44.17v-3.59c0.01-0.54-0.41-1.18-0.92-1.42l-5.91-2.8
		c-0.51-0.24-1.14-0.04-1.39,0.44l-1.78,3.38l-0.33-0.58l0.63-1.84h-1.94h-1.94l0.63,1.84l-0.32,0.58l-1.79-3.38
		c-0.26-0.48-0.88-0.68-1.39-0.44l-5.91,2.8c-0.51,0.24-0.93,0.88-0.93,1.42v3.59H10.73c-0.08,0-0.15-0.07-0.15-0.15V14.52z
		 M59.76,47.67c0,0.37-0.3,0.68-0.68,0.68H5.92c-0.37,0-0.68-0.3-0.68-0.68v-0.75c0-0.37,0.3-0.68,0.68-0.68h53.16
		c0.37,0,0.68,0.3,0.68,0.68V47.67z"/>
</g>
</svg>
